<?xml version="1.0" standalone="no"?>
<!DOCTYPE svg PUBLIC "-//W3C//DTD SVG 20010904//EN"
 "http://www.w3.org/TR/2001/REC-SVG-20010904/DTD/svg10.dtd">
<svg version="1.0" xmlns="http://www.w3.org/2000/svg"
 width="842.000000pt" height="842.000000pt" viewBox="0 0 842.000000 842.000000"
 preserveAspectRatio="xMidYMid meet">
<metadata>
Created by potrace 1.16, written by Peter Selinger 2001-2019
</metadata>
<g transform="translate(0.000000,842.000000) scale(0.100000,-0.100000)"
fill="#000000" stroke="none">
<path d="M4200 7755 c-115 -33 -210 -112 -251 -212 l-24 -58 -3 -742 -3 -743
-1552 0 c-1035 0 -1574 -4 -1617 -11 -186 -30 -297 -163 -320 -382 -12 -118
-13 -2637 0 -2732 23 -176 108 -288 255 -334 44 -14 228 -16 1642 -18 l1592
-4 3 -772 3 -772 23 -62 c31 -81 97 -150 188 -194 62 -30 80 -34 174 -37 103
-4 106 -3 168 30 76 40 -42 -76 1830 1793 1681 1678 1527 1505 1527 1710 0
209 179 10 -1686 1876 -1323 1324 -1633 1630 -1674 1649 -64 31 -193 37 -275
15z"/>
</g>
</svg>
